<svg xmlns="http://www.w3.org/2000/svg" id="Capa_1" viewBox="0 0 307 42"><defs><style>      .st0 {        fill: #fff;      }    </style></defs><path class="st0" d="M110.4,0h-.6v42h.6V0Z"></path><path class="st0" d="M28,4.4v17.4c0,10.1-5.4,13.9-14,13.9S0,31.9,0,21.8V4.4h7.7v15.5c0,6.6,2.5,9.1,6.3,9.1s6.3-2.5,6.3-9.1V4.4h7.7Z"></path><path class="st0" d="M93,15.8c0,8.7-7,11.1-14.2,11.1h-6.3v8.9h-7.8V4.4h13.7c6.8,0,14.6,2,14.6,11.4h0ZM85.2,15.8c0-2.6-1.7-4.4-5.9-4.4h-6.7v8.3h6.7c4.3,0,5.9-1.7,5.9-4Z"></path><path class="st0" d="M34,18.9l5.5-14.4h4.6l-3.1,12.3c2.3-.5,4.7-1,7-1.6l-2.7-10.7h4.6l3.4,8.8c1-.5,2-1.2,2.5-2.3.4.9,0,2.1-.7,2.8-.7.7-1.6,1.1-2.5,1.5-2.2.8-4.4,1.5-6.6,2-4,1-4.9.9-9.4,2.2-2.7.8-3.9,1.6-4.4,2,0-1.2.8-2,1.8-2.6h0Z"></path><path class="st0" d="M33.6,21.8c2-.8,4.1-1.4,6.2-1.9,2.1-.5,4.2-.9,6.3-1.4,2-.5,4.1-1,6.1-1.6,2.1-.7,4.2-1.7,5.1-3.9.7,2-.5,3.9-2.2,4.8-1.9,1.1-4.3,1.6-6.4,2.1-2.2.6-4.4,1.1-6.6,1.6-2.2.5-4.3,1-6.5,1.7-1.8.6-4,1.4-5.2,2.9-.6-2.2,1.5-3.6,3.2-4.3h0Z"></path><path class="st0" d="M36.6,34.4c-3.1.3-6.1.8-9.1,1.4l1.1-2.9c1.3-1.9,3.3-3,5.4-3.8,1.4-.5,2.8-.9,4.3-1.3l-1.7,6.8h0Z"></path><path class="st0" d="M41.3,25.6c-2.4.6-4.9,1.2-7.2,2.1-2.1.8-4.1,2-5.4,3.8-.4-2.9,2.2-5,4.5-6.1,2.7-1.3,5.7-1.8,8.6-2.5,3.1-.7,6.1-1.5,9.2-2.3,2.9-.8,6.4-1.8,7.7-4.8.6,1.4,0,3.1-.9,4.1-1.3,1.3-3.4,1.9-5.1,2.5-2.4.8-4.8,1.4-7.3,2.1-1.4.4-2.8.8-4.2,1.1Z"></path><path class="st0" d="M62,35.8c-3-.6-6-1-9.1-1.3l-2.5-10c.8-.2,1.5-.5,2.3-.7,1.3-.4,2.8-.9,4-1.6l5.2,13.6h0Z"></path><path class="st0" d="M127.8,16.7c-.4-.5-.7-1.1-.7-1.8v-3.7h1.1v3.7c0,.5.1.8.4,1.1.3.3.6.4,1.1.4s.8-.1,1.1-.4c.3-.2.4-.6.4-1.1v-3.7h1.1v3.7c0,.8-.2,1.4-.7,1.8-.4.4-1.1.7-1.9.7s-1.5-.2-1.9-.7h0Z"></path><path class="st0" d="M137.3,11.2h1l2.8,4.2v-4.2h1.1v6.1h-1l-2.8-4.3v4.3h-1.1v-6.1Z"></path><path class="st0" d="M147.3,11.2h1.1v6.1h-1.1v-6.1Z"></path><path class="st0" d="M153.3,11.2h1.2l1.8,4.6,1.8-4.6h1.2l-2.4,6.1h-1.1l-2.4-6.1Z"></path><path class="st0" d="M164.1,11.2h4.1v.9h-3v1.7h2.2v.9h-2.2v1.7h3v.9h-4.1v-6.1h0Z"></path><path class="st0" d="M173,11.2h2.5c.7,0,1.2.2,1.6.5s.5.8.5,1.4-.1.8-.3,1.1c-.2.3-.5.5-.9.7l1.2,2.3h-1.1l-1.2-2.2h-1.2v2.2h-1.1v-6.1ZM175.3,14.1c.4,0,.7,0,.9-.2.2-.2.3-.4.3-.8,0-.7-.4-1-1.2-1h-1.2v2h1.2Z"></path><path class="st0" d="M183.2,17.2c-.4,0-.6-.1-.9-.3v-1c.3.1.6.2.9.3.3,0,.6,0,.9,0s.7,0,.9-.2c.2-.2.3-.4.3-.6s0-.3-.1-.5c0-.1-.2-.2-.4-.3-.2,0-.4-.2-.8-.4-.6-.2-1-.5-1.2-.8-.2-.3-.4-.6-.4-1.1s0-.6.3-.9c.2-.3.4-.4.8-.6.3-.1.7-.2,1.1-.2s.7,0,.9,0c.3,0,.5.2.8.3v.9c-.5-.2-1-.4-1.5-.4s-.7,0-.9.2c-.2.2-.3.3-.3.6s0,.3.1.5c0,.1.2.2.4.3.2,0,.4.2.8.4.4.2.7.3,1,.5.2.1.4.4.5.6s.2.5.2.8c0,.5-.2,1-.6,1.3-.4.3-1,.4-1.7.4s-.7,0-1.1,0h0Z"></path><path class="st0" d="M191.4,11.2h1.1v6.1h-1.1v-6.1Z"></path><path class="st0" d="M197.6,11.2h2c.7,0,1.2.1,1.7.4.5.2.9.6,1.1,1,.2.5.4,1,.4,1.6,0,1-.3,1.8-.9,2.3-.6.5-1.4.8-2.5.8h-1.9v-6.1h0ZM199.5,16.3c.7,0,1.3-.2,1.6-.6.4-.4.6-.9.6-1.6s0-.8-.2-1.1c-.1-.3-.4-.6-.7-.8s-.7-.3-1.1-.3h-1v4.3h.8Z"></path><path class="st0" d="M210,11.2h1.1l2.4,6.1h-1.1l-.6-1.4h-2.6l-.5,1.4h-1.1l2.4-6.1ZM211.5,14.9l-1-2.6-1,2.6h2Z"></path><path class="st0" d="M218.3,11.2h2c.7,0,1.2.1,1.7.4.5.2.9.6,1.1,1,.2.5.4,1,.4,1.6,0,1-.3,1.8-.9,2.3-.6.5-1.4.8-2.5.8h-1.9v-6.1h0ZM220.3,16.3c.7,0,1.3-.2,1.6-.6.4-.4.6-.9.6-1.6s0-.8-.2-1.1c-.1-.3-.4-.6-.7-.8-.3-.2-.7-.3-1.1-.3h-1v4.3h.8Z"></path><path class="st0" d="M129.4,24.8h1.1l2.4,6.1h-1.1l-.6-1.4h-2.6l-.5,1.4h-1.1l2.4-6.1ZM130.9,28.6l-1-2.6-1,2.6h2Z"></path><path class="st0" d="M137.8,24.8h2c.7,0,1.2.1,1.7.4.5.2.9.6,1.1,1.1.2.4.4,1,.4,1.6,0,1-.3,1.8-.9,2.3-.6.5-1.4.8-2.5.8h-1.9v-6.1h0ZM139.7,29.9c.7,0,1.3-.2,1.6-.6.4-.4.6-.9.6-1.6s0-.8-.2-1.1c-.1-.3-.4-.6-.7-.8-.3-.2-.7-.3-1.1-.3h-1v4.3h.8Z"></path><path class="st0" d="M147.7,24.8h1.2l1.8,4.6,1.8-4.6h1.2l-2.4,6.1h-1.1l-2.4-6.1Z"></path><path class="st0" d="M158.5,24.8h4.1v.9h-3v1.7h2.2v.9h-2.2v1.7h3v.9h-4.1v-6.1h0Z"></path><path class="st0" d="M167.4,24.8h1.1l2.8,4.2v-4.2h1.1v6.1h-1.1l-2.8-4.3v4.3h-1.1v-6.1Z"></path><path class="st0" d="M178.9,25.7h-1.8v-.9h4.8v.9h-1.8v5.2h-1.1v-5.2Z"></path><path class="st0" d="M186.6,24.8h1.1v6.1h-1.1v-6.1Z"></path><path class="st0" d="M193.4,30.9c-.4,0-.6-.1-.9-.3v-1c.3.1.6.2.9.3.3,0,.6,0,.9,0s.7,0,.9-.2c.2-.1.3-.4.3-.6s0-.3-.1-.5c0-.1-.2-.2-.4-.3-.2,0-.4-.2-.8-.4-.6-.2-1-.5-1.2-.8-.2-.3-.4-.6-.4-1.1s0-.6.3-.9c.2-.3.4-.5.8-.6s.7-.2,1.1-.2.7,0,.9,0c.3,0,.5.2.8.3v.9c-.5-.2-1-.4-1.5-.4s-.7,0-.9.2c-.2.1-.3.3-.3.6s0,.3.1.5c0,.1.2.2.4.3.1,0,.4.2.8.4.4.2.7.3,1,.5.2.2.4.4.5.6.1.2.2.5.2.8,0,.5-.2,1-.6,1.3-.4.3-1,.4-1.7.4s-.7,0-1.1,0h0Z"></path><path class="st0" d="M203.1,25.7h-1.8v-.9h4.8v.9h-1.8v5.2h-1.1v-5.2Z"></path><path class="st0" d="M213,24.8h1.1l2.4,6.1h-1.1l-.6-1.4h-2.6l-.5,1.4h-1.1l2.4-6.1ZM214.6,28.6l-1-2.6-1,2.6h2Z"></path><path class="st0" d="M228.5,24.8h2c.7,0,1.2.1,1.7.4.5.2.9.6,1.1,1.1.2.4.4,1,.4,1.6,0,1-.3,1.8-.9,2.3-.6.5-1.4.8-2.5.8h-1.9v-6.1h0ZM230.5,29.9c.7,0,1.3-.2,1.6-.6.4-.4.6-.9.6-1.6s0-.8-.2-1.1c-.1-.3-.4-.6-.7-.8-.3-.2-.7-.3-1.1-.3h-1v4.3h.8Z"></path><path class="st0" d="M238.7,24.8h4.1v.9h-3v1.7h2.2v.9h-2.2v1.7h3v.9h-4.1v-6.1h0Z"></path><path class="st0" d="M247.6,24.8h1.1v5.2h2.9v.9h-4v-6.1h0Z"></path><path class="st0" d="M263.4,24.8h2.4c.7,0,1.2.2,1.6.5.4.4.6.8.6,1.4s-.2,1.1-.6,1.5c-.4.4-.9.5-1.6.5h-1.3v2.1h-1.1v-6.1ZM265.7,27.8c.8,0,1.2-.4,1.2-1s-.4-1.1-1.2-1.1h-1.2v2.1h1.2Z"></path><path class="st0" d="M272.8,24.8h1.1v5.2h2.9v.9h-4v-6.1h0Z"></path><path class="st0" d="M283.7,24.8h1.1l2.4,6.1h-1.1l-.6-1.4h-2.6l-.5,1.4h-1.1l2.4-6.1ZM285.3,28.6l-1-2.6-1,2.6h2Z"></path><path class="st0" d="M293.6,25.7h-1.8v-.9h4.8v.9h-1.8v5.2h-1.1v-5.2Z"></path><path class="st0" d="M303.5,24.8h1.1l2.4,6.1h-1.1l-.6-1.4h-2.6l-.5,1.4h-1.1l2.4-6.1ZM305,28.6l-1-2.6-1,2.6h2Z"></path></svg>