<svg xmlns="http://www.w3.org/2000/svg" id="Capa_1" viewBox="0 0 319.4 43.5"><defs><style>      .st0 {        fill: #0e3f67;      }    </style></defs><path class="st0" d="M114.9,0h-.6v43.5h.6V0Z"></path><path class="st0" d="M29.1,4.6v18c0,10.4-5.6,14.4-14.6,14.4S0,33,0,22.6V4.6h8v16c0,6.8,2.6,9.4,6.5,9.4s6.5-2.6,6.5-9.4V4.6h8Z"></path><path class="st0" d="M96.8,16.3c0,9-7.3,11.5-14.8,11.5h-6.5v9.2h-8.1V4.6h14.3c7.1,0,15.2,2.1,15.2,11.8h0ZM88.5,16.4c0-2.7-1.7-4.5-6.2-4.5h-7v8.6h7c4.4,0,6.2-1.7,6.2-4.1Z"></path><path class="st0" d="M35.4,19.5l5.8-14.9h4.7l-3.2,12.7c2.4-.5,4.9-1.1,7.3-1.7l-2.8-11.1h4.7l3.5,9.2c1.1-.5,2.1-1.3,2.6-2.4.4,1,0,2.1-.7,2.9-.7.7-1.7,1.2-2.6,1.5-2.2.9-4.6,1.5-6.9,2-4.2,1-5.1,1-9.8,2.3-2.8.8-4.1,1.6-4.6,2.1,0-1.2.8-2.1,1.8-2.7h0Z"></path><path class="st0" d="M34.9,22.5c2.1-.9,4.3-1.4,6.5-1.9,2.2-.5,4.4-1,6.6-1.5,2.1-.5,4.3-1,6.4-1.7,2.2-.7,4.4-1.8,5.3-4,.8,2.1-.6,4-2.3,5-2,1.1-4.4,1.6-6.6,2.2-2.3.6-4.6,1.1-6.8,1.7-2.3.6-4.4,1-6.8,1.7-1.9.6-4.1,1.4-5.5,3-.6-2.2,1.6-3.7,3.3-4.5h0Z"></path><path class="st0" d="M38.1,35.6c-3.2.3-6.4.8-9.5,1.4l1.2-3c1.3-2,3.4-3.1,5.6-4,1.4-.6,2.9-1,4.5-1.4l-1.7,7h0Z"></path><path class="st0" d="M42.9,26.5c-2.5.7-5.1,1.2-7.5,2.1-2.2.8-4.2,2-5.6,4-.5-3,2.3-5.2,4.7-6.3,2.8-1.3,5.9-1.9,8.9-2.6,3.2-.7,6.4-1.6,9.6-2.4,3-.8,6.7-1.9,8-5,.6,1.4,0,3.2-1,4.3-1.3,1.4-3.5,2-5.3,2.5-2.5.8-5,1.5-7.5,2.1-1.4.4-2.9.8-4.4,1.1Z"></path><path class="st0" d="M64.5,37c-3.1-.6-6.3-1.1-9.5-1.4l-2.6-10.3c.8-.2,1.6-.5,2.4-.7,1.3-.5,2.9-.9,4.2-1.7l5.5,14.1h0Z"></path><path class="st0" d="M132.9,17.3c-.5-.5-.7-1.1-.7-1.9v-3.9h1.2v3.9c0,.5.1.9.4,1.1.3.3.7.4,1.1.4s.8-.1,1.1-.4c.3-.2.4-.7.4-1.1v-3.9h1.2v3.9c0,.8-.2,1.4-.7,1.9-.5.5-1.1.7-2,.7s-1.6-.2-2-.7h0Z"></path><path class="st0" d="M142.8,11.5h1.1l3,4.4v-4.4h1.2v6.3h-1.1l-3-4.4v4.4h-1.2v-6.3Z"></path><path class="st0" d="M153.2,11.5h1.2v6.3h-1.2v-6.3Z"></path><path class="st0" d="M159.5,11.5h1.2l1.9,4.8,1.9-4.8h1.2l-2.5,6.3h-1.1l-2.5-6.3Z"></path><path class="st0" d="M170.7,11.5h4.3v.9h-3.1v1.7h2.3v.9h-2.3v1.7h3.1v.9h-4.3v-6.3h0Z"></path><path class="st0" d="M179.9,11.5h2.7c.7,0,1.2.2,1.6.5.4.3.6.8.6,1.5s-.1.9-.3,1.2c-.2.3-.6.6-1,.7l1.3,2.4h-1.2l-1.2-2.3h-1.2v2.3h-1.2v-6.3ZM182.4,14.6c.4,0,.7,0,.9-.2.2-.2.3-.4.3-.8,0-.7-.4-1.1-1.2-1.1h-1.3v2.1h1.3Z"></path><path class="st0" d="M190.6,17.9c-.4,0-.7-.2-.9-.3v-1c.3.2.6.2.9.3.3,0,.7,0,1,0s.7,0,.9-.2c.2-.2.3-.4.3-.6s0-.3-.2-.5c0-.1-.2-.2-.4-.3s-.5-.2-.9-.4c-.6-.2-1-.5-1.3-.8-.2-.3-.4-.7-.4-1.1s0-.7.3-.9c.2-.3.4-.5.8-.6.3-.2.7-.2,1.2-.2s.7,0,1,0c.3,0,.6.2.8.3v1c-.5-.2-1.1-.4-1.6-.4s-.7,0-.9.2c-.2.2-.3.3-.3.6s0,.3.2.5c0,.1.2.2.4.3.2,0,.4.2.9.4.4.2.7.3,1,.5.2.2.4.4.6.6.1.2.2.5.2.8,0,.6-.2,1-.6,1.3-.4.3-1,.5-1.8.5s-.7,0-1.1,0h0Z"></path><path class="st0" d="M199.1,11.5h1.2v6.3h-1.2v-6.3Z"></path><path class="st0" d="M205.5,11.5h2.1c.7,0,1.3.1,1.8.4.5.2.9.6,1.2,1.1.2.5.4,1,.4,1.6,0,1.1-.3,1.8-.9,2.4-.6.5-1.5.8-2.6.8h-2v-6.3h0ZM207.6,16.9c.7,0,1.3-.2,1.7-.6.4-.4.6-.9.6-1.6s0-.8-.2-1.1c-.2-.3-.4-.6-.7-.8-.3-.2-.7-.3-1.2-.3h-1v4.4h.9Z"></path><path class="st0" d="M218.4,11.5h1.1l2.5,6.3h-1.2l-.6-1.5h-2.7l-.6,1.5h-1.2l2.5-6.3ZM220,15.4l-1-2.7-1,2.7h2.1Z"></path><path class="st0" d="M227.1,11.5h2.1c.7,0,1.3.1,1.8.4s.9.6,1.2,1.1c.2.5.4,1,.4,1.6,0,1.1-.3,1.8-.9,2.4-.6.5-1.5.8-2.6.8h-2v-6.3h0ZM229.1,16.9c.7,0,1.3-.2,1.7-.6.4-.4.6-.9.6-1.6s0-.8-.2-1.1c-.2-.3-.4-.6-.7-.8s-.7-.3-1.2-.3h-1v4.4h.9Z"></path><path class="st0" d="M134.6,25.7h1.1l2.5,6.3h-1.2l-.6-1.5h-2.7l-.6,1.5h-1.2l2.5-6.3ZM136.2,29.5l-1-2.7-1,2.7h2.1Z"></path><path class="st0" d="M143.3,25.7h2.1c.7,0,1.3.1,1.8.4.5.2.9.6,1.2,1.1.2.5.4,1,.4,1.6,0,1.1-.3,1.8-.9,2.4-.6.5-1.5.8-2.6.8h-2v-6.3h0ZM145.3,31c.7,0,1.3-.2,1.7-.6.4-.4.6-.9.6-1.6s0-.8-.2-1.1c-.2-.3-.4-.6-.7-.8-.3-.2-.7-.3-1.2-.3h-1v4.4h.9Z"></path><path class="st0" d="M153.7,25.7h1.2l1.9,4.8,1.9-4.8h1.2l-2.5,6.3h-1.1l-2.5-6.3Z"></path><path class="st0" d="M164.9,25.7h4.3v.9h-3.1v1.7h2.3v.9h-2.3v1.7h3.1v.9h-4.3v-6.3h0Z"></path><path class="st0" d="M174.2,25.7h1.1l3,4.4v-4.4h1.2v6.3h-1.1l-3-4.4v4.4h-1.2v-6.3Z"></path><path class="st0" d="M186.1,26.6h-1.9v-.9h5v.9h-1.9v5.3h-1.2v-5.3Z"></path><path class="st0" d="M194.1,25.7h1.2v6.3h-1.2v-6.3Z"></path><path class="st0" d="M201.2,32c-.4,0-.7-.2-.9-.3v-1c.3.2.6.2.9.3.3,0,.7,0,1,0s.7,0,.9-.2c.2-.2.3-.4.3-.6s0-.3-.2-.5c0-.1-.2-.2-.4-.3-.2,0-.5-.2-.9-.4-.6-.2-1-.5-1.3-.8-.2-.3-.4-.7-.4-1.1s0-.7.3-.9c.2-.3.4-.5.8-.6.3-.2.7-.2,1.2-.2s.7,0,1,0c.3,0,.6.2.8.3v1c-.5-.2-1.1-.4-1.6-.4s-.7,0-.9.2c-.2.2-.3.3-.3.6s0,.3.2.5c0,.1.2.2.4.3.2,0,.4.2.9.4.4.2.7.3,1,.5.2.2.4.4.6.6.1.2.2.5.2.8,0,.6-.2,1-.6,1.3-.4.3-1,.5-1.8.5s-.7,0-1.1,0h0Z"></path><path class="st0" d="M211.3,26.6h-1.9v-.9h5v.9h-1.9v5.3h-1.2v-5.3Z"></path><path class="st0" d="M221.6,25.7h1.1l2.5,6.3h-1.2l-.6-1.5h-2.7l-.6,1.5h-1.2l2.5-6.3ZM223.2,29.5l-1-2.7-1,2.7h2.1Z"></path><path class="st0" d="M237.7,25.7h2.1c.7,0,1.3.1,1.8.4.5.2.9.6,1.2,1.1.2.5.4,1,.4,1.6,0,1.1-.3,1.8-.9,2.4-.6.5-1.5.8-2.6.8h-2v-6.3h0ZM239.8,31c.7,0,1.3-.2,1.7-.6.4-.4.6-.9.6-1.6s0-.8-.2-1.1c-.2-.3-.4-.6-.7-.8-.3-.2-.7-.3-1.2-.3h-1v4.4h.9Z"></path><path class="st0" d="M248.3,25.7h4.3v.9h-3.1v1.7h2.3v.9h-2.3v1.7h3.1v.9h-4.3v-6.3h0Z"></path><path class="st0" d="M257.5,25.7h1.2v5.3h3v.9h-4.2v-6.3h0Z"></path><path class="st0" d="M274,25.7h2.5c.7,0,1.2.2,1.7.6.4.4.6.9.6,1.5s-.2,1.1-.6,1.5c-.4.4-1,.5-1.7.5h-1.4v2.2h-1.2v-6.3ZM276.4,28.8c.9,0,1.3-.4,1.3-1.1s-.4-1.1-1.3-1.1h-1.2v2.2h1.2Z"></path><path class="st0" d="M283.7,25.7h1.2v5.3h3v.9h-4.2v-6.3h0Z"></path><path class="st0" d="M295.1,25.7h1.1l2.5,6.3h-1.2l-.6-1.5h-2.7l-.6,1.5h-1.2l2.5-6.3ZM296.7,29.5l-1-2.7-1,2.7h2.1Z"></path><path class="st0" d="M305.4,26.6h-1.9v-.9h5v.9h-1.9v5.3h-1.2v-5.3Z"></path><path class="st0" d="M315.7,25.7h1.1l2.5,6.3h-1.2l-.6-1.5h-2.7l-.6,1.5h-1.2l2.5-6.3ZM317.3,29.5l-1-2.7-1,2.7h2.1Z"></path></svg>